<svg xmlns:xlink="http://www.w3.org/1999/xlink" height="42" width="153" xmlns="http://www.w3.org/2000/svg" class="h-[42px] w-[153px] footer-logo t-icon"><defs><symbol id="i-logofull" viewBox="0 0 131 36" fill="none" xmlns="http://www.w3.org/2000/svg"><path d="M67.119 18.112l-2.171 2.522v4.75h-4.07V.321h4.07V15.48l7.575-8.087h4.883l-7.26 7.547 7.944 10.445H73.14l-6.022-7.272zM22.529 7.14c2.244 0 4.043.653 5.399 1.96 1.355 1.306 2.033 3.552 2.033 6.12v10.164h-4.166v-9.632c0-1.55-.367-2.713-1.1-3.488-.733-.797-1.778-1.195-3.133-1.195-1.533 0-2.744.465-3.633 1.395-.888.908-1.325 2.225-1.325 3.952v8.968H12.43V.321h4.174V9.4a6.606 6.606 0 012.525-1.66c1.022-.4 2.155-.599 3.4-.599zM50.259 7.07c2.244 0 4.044.657 5.399 1.971 1.355 1.315 2.033 3.466 2.033 6.051v10.292h-4.166v-9.757c0-1.56-.367-2.73-1.1-3.51-.733-.802-1.777-1.204-3.133-1.204-1.533 0-2.744.469-3.633 1.405-.888.913-1.333 2.24-1.333 3.978v9.088H40.16V7.354h4.174v2.222c.69-.824 1.348-1.448 2.392-1.872 1.044-.423 2.222-.635 3.533-.635zM35.06 5.141c-.722 0-1.327-.24-1.816-.72-.489-.502-.733-1.12-.733-1.85 0-.732.244-1.337.733-1.817C33.733.251 34.338 0 35.061 0c.722 0 1.328.24 1.817.72.488.457.733 1.04.733 1.748 0 .754-.245 1.394-.733 1.92-.468.502-1.073.753-1.817.753zM37.292 7.39h-4.144v17.994h4.144V7.39zM9.88 24.173c-.476.404-1.061.707-1.754.908a7.415 7.415 0 01-2.146.303c-1.906 0-3.38-.516-4.42-1.547C.52 22.805 0 21.302 0 19.328V3.213h4.091v4.105h4.092v3.364H4.09v8.545c0 .983.178 1.548.59 2.019.433.449 1.029.673 1.787.673.91 0 1.668-.247 2.275-.74l1.138 2.994z" fill="#2339FF"></path><path fill-rule="evenodd" clip-rule="evenodd" d="M95.004 27.646c2.852 2.644 7.011 4.611 11.272 4.611 4.309 0 8.433-1.794 11.224-4.566l2.664 2.646C116.676 33.802 111.598 36 106.276 36c-5.372 0-10.416-2.44-13.842-5.618l2.57-2.736z" fill="#0DC1D2"></path><path d="M105.922 9.89c1.189-1.88 3.279-2.82 6.272-2.82-.124.603-.775 3.254-.957 3.894-1.607 0-2.861.481-3.763 1.444-.902.94-1.354 2.305-1.354 4.096v8.88h-4.126V7.354h3.928V9.89zM121.581 25.706c-1.785 0-3.393-.398-4.826-1.193a8.71 8.71 0 01-3.371-3.305c-.793-1.43-1.189-3.043-1.189-4.838 0-1.794.396-3.395 1.189-4.804a8.71 8.71 0 013.371-3.304c1.433-.795 3.041-1.193 4.826-1.193 1.806 0 3.426.398 4.858 1.193a8.472 8.472 0 013.338 3.304c.815 1.409 1.223 3.01 1.223 4.804 0 1.795-.408 3.407-1.223 4.838a8.473 8.473 0 01-3.338 3.305c-1.432.795-3.052 1.193-4.858 1.193zm0-3.646c1.52 0 2.776-.522 3.767-1.567.992-1.045 1.488-2.42 1.488-4.123 0-1.703-.496-3.077-1.488-4.122-.991-1.045-2.247-1.567-3.767-1.567-1.521 0-2.776.522-3.768 1.567-.969 1.045-1.454 2.419-1.454 4.122 0 1.704.485 3.078 1.454 4.123.992 1.045 2.247 1.567 3.768 1.567zM90.927 7.07c1.696 0 3.206.382 4.532 1.147 1.348.766 2.402 1.847 3.163 3.243.76 1.396 1.141 3.055 1.141 4.879 0 1.824-.38 3.46-1.141 4.878-.76 1.396-1.815 2.529-3.163 3.294-1.326.766-2.836 1.191-4.532 1.191-2.347 0-4.206-.968-5.575-2.589v8.698h-4.076V7.356h3.88v2.28a6.355 6.355 0 012.478-1.925c1-.428 2.098-.642 3.293-.642zm-.456 14.86c1.5 0 2.728-.517 3.684-1.553.978-1.036 1.467-2.398 1.467-4.087 0-1.689-.489-3.051-1.467-4.087-.956-1.036-2.184-1.554-3.684-1.554-.978 0-1.859.237-2.641.71-.783.45-1.402 1.103-1.859 1.959-.456.855-.684 1.846-.684 2.972s.228 2.117.684 2.972c.457.856 1.076 1.52 1.859 1.993.782.45 1.663.676 2.64.676z" fill="#0DC1D2"></path></symbol></defs><!----> <!----> <use xlink:href="#i-logofull"></use></svg>